<svg xmlns="http://www.w3.org/2000/svg" xmlns:xlink="http://www.w3.org/1999/xlink" width="500" zoomAndPan="magnify" viewBox="0 0 375 374.999991" height="500" preserveAspectRatio="xMidYMid meet" version="1.0"><defs><g/><clipPath id="edd89c2f52"><path d="M 53.476562 53.476562 L 321.226562 53.476562 L 321.226562 321.226562 L 53.476562 321.226562 Z M 53.476562 53.476562 " clip-rule="nonzero"/></clipPath><clipPath id="8e4f095ea7"><path d="M 87.296875 162.554688 L 287.703125 162.554688 L 287.703125 208.75 L 87.296875 208.75 Z M 87.296875 162.554688 " clip-rule="nonzero"/></clipPath></defs><rect x="-37.5" width="450" fill="#ffffff" y="-37.499999" height="449.999989" fill-opacity="1"/><rect x="-37.5" width="450" fill="#fffaf6" y="-37.499999" height="449.999989" fill-opacity="1"/><g clip-path="url(#edd89c2f52)"><path fill="#000000" d="M 187.351562 321.226562 C 113.554688 321.226562 53.476562 261.148438 53.476562 187.351562 C 53.476562 113.554688 113.554688 53.476562 187.351562 53.476562 C 261.148438 53.476562 321.226562 113.554688 321.226562 187.351562 C 321.226562 261.148438 261.148438 321.226562 187.351562 321.226562 Z M 187.351562 55.457031 C 114.613281 55.457031 55.457031 114.613281 55.457031 187.351562 C 55.457031 260.09375 114.613281 319.25 187.351562 319.25 C 260.09375 319.25 319.25 260.09375 319.25 187.351562 C 319.25 114.613281 260.09375 55.457031 187.351562 55.457031 Z M 187.351562 55.457031 " fill-opacity="1" fill-rule="nonzero"/></g><g fill="#000000" fill-opacity="1"><g transform="translate(112.063463, 260.458615)"><g><path d="M 25.34375 0 L 25.34375 -50.515625 L 0.890625 -153.34375 L 31.234375 -153.34375 L 39.8125 -101.390625 L 48.375 -153.34375 L 78.71875 -153.34375 L 54.265625 -50.515625 L 54.265625 0 Z M 25.34375 0 "/></g></g><g transform="translate(191.684182, 260.458615)"><g><path d="M 6.78125 0 L 6.78125 -153.34375 L 68.1875 -153.34375 L 68.1875 -123.53125 L 37.671875 -123.53125 L 37.671875 -99.078125 L 66.59375 -99.078125 L 66.59375 -69.625 L 37.671875 -69.625 L 37.671875 0 Z M 6.78125 0 "/></g></g></g><g clip-path="url(#8e4f095ea7)"><path fill="#fffaf6" d="M 87.296875 162.554688 L 287.785156 162.554688 L 287.785156 208.75 L 87.296875 208.75 Z M 87.296875 162.554688 " fill-opacity="1" fill-rule="nonzero"/></g><path stroke-linecap="butt" transform="matrix(0.75, 0, 0, 0.75, 100.19761, 162.526571)" fill="none" stroke-linejoin="miter" d="M 0.00214511 2.501031 L 232.804244 2.501031 " stroke="#000000" stroke-width="5" stroke-opacity="1" stroke-miterlimit="4"/><path stroke-linecap="butt" transform="matrix(0.75, 0, 0, 0.75, 100.19761, 206.668405)" fill="none" stroke-linejoin="miter" d="M 0.00214511 2.499419 L 232.804244 2.499419 " stroke="#000000" stroke-width="5" stroke-opacity="1" stroke-miterlimit="4"/><g fill="#000000" fill-opacity="1"><g transform="translate(131.455974, 196.002117)"><g><path d="M 3.84375 0 L 3.84375 -7.671875 L 0.140625 -23.28125 L 4.75 -23.28125 L 6.046875 -15.390625 L 7.34375 -23.28125 L 11.953125 -23.28125 L 8.234375 -7.671875 L 8.234375 0 Z M 3.84375 0 "/></g></g></g><g fill="#000000" fill-opacity="1"><g transform="translate(148.968025, 196.002117)"><g><path d="M 6.59375 0.21875 C 4.707031 0.21875 3.273438 -0.351562 2.296875 -1.5 C 1.328125 -2.644531 0.84375 -4.257812 0.84375 -6.34375 L 0.84375 -17.4375 C 0.84375 -19.4375 1.328125 -20.945312 2.296875 -21.96875 C 3.273438 -22.988281 4.707031 -23.5 6.59375 -23.5 C 8.46875 -23.5 9.890625 -22.988281 10.859375 -21.96875 C 11.835938 -20.945312 12.328125 -19.4375 12.328125 -17.4375 L 12.328125 -6.34375 C 12.328125 -4.25 11.835938 -2.628906 10.859375 -1.484375 C 9.890625 -0.347656 8.46875 0.21875 6.59375 0.21875 Z M 6.59375 -4.0625 C 7.007812 -4.0625 7.285156 -4.242188 7.421875 -4.609375 C 7.566406 -4.972656 7.640625 -5.476562 7.640625 -6.125 L 7.640625 -17.515625 C 7.640625 -18.015625 7.570312 -18.421875 7.4375 -18.734375 C 7.300781 -19.054688 7.023438 -19.21875 6.609375 -19.21875 C 5.835938 -19.21875 5.453125 -18.628906 5.453125 -17.453125 L 5.453125 -6.09375 C 5.453125 -5.425781 5.53125 -4.921875 5.6875 -4.578125 C 5.851562 -4.234375 6.15625 -4.0625 6.59375 -4.0625 Z M 6.59375 -4.0625 "/></g></g></g><g fill="#000000" fill-opacity="1"><g transform="translate(167.564301, 196.002117)"><g><path d="M 6.421875 0.21875 C 4.503906 0.21875 3.082031 -0.320312 2.15625 -1.40625 C 1.226562 -2.488281 0.765625 -4.097656 0.765625 -6.234375 L 0.765625 -23.28125 L 5.28125 -23.28125 L 5.28125 -6.421875 C 5.28125 -5.679688 5.351562 -5.101562 5.5 -4.6875 C 5.644531 -4.269531 5.953125 -4.0625 6.421875 -4.0625 C 6.890625 -4.0625 7.195312 -4.265625 7.34375 -4.671875 C 7.488281 -5.078125 7.5625 -5.660156 7.5625 -6.421875 L 7.5625 -23.28125 L 12.09375 -23.28125 L 12.09375 -6.234375 C 12.09375 -4.097656 11.625 -2.488281 10.6875 -1.40625 C 9.757812 -0.320312 8.335938 0.21875 6.421875 0.21875 Z M 6.421875 0.21875 "/></g></g></g><g fill="#000000" fill-opacity="1"><g transform="translate(185.835302, 196.002117)"><g/></g></g><g fill="#000000" fill-opacity="1"><g transform="translate(197.600989, 196.002117)"><g><path d="M 1.03125 0 L 1.03125 -23.28125 L 10.359375 -23.28125 L 10.359375 -18.78125 L 5.78125 -18.78125 L 5.78125 -14.265625 L 10.171875 -14.265625 L 10.171875 -9.875 L 5.78125 -9.875 L 5.78125 -4.53125 L 10.65625 -4.53125 L 10.65625 0 Z M 1.03125 0 "/></g></g></g><g fill="#000000" fill-opacity="1"><g transform="translate(214.191448, 196.002117)"><g><path d="M 1.03125 0 L 1.03125 -23.28125 L 5.6875 -23.28125 L 5.6875 -3.953125 L 10.484375 -3.953125 L 10.484375 0 Z M 1.03125 0 "/></g></g></g><g fill="#000000" fill-opacity="1"><g transform="translate(230.375332, 196.002117)"><g><path d="M 5.828125 0.21875 C 4.148438 0.21875 2.898438 -0.367188 2.078125 -1.546875 C 1.253906 -2.734375 0.84375 -4.53125 0.84375 -6.9375 L 0.84375 -16.96875 C 0.84375 -19.125 1.320312 -20.75 2.28125 -21.84375 C 3.238281 -22.945312 4.664062 -23.5 6.5625 -23.5 C 8.09375 -23.5 9.28125 -23.191406 10.125 -22.578125 C 10.976562 -21.960938 11.566406 -21.066406 11.890625 -19.890625 C 12.222656 -18.722656 12.390625 -17.21875 12.390625 -15.375 L 7.828125 -15.375 L 7.828125 -17.453125 C 7.828125 -18.015625 7.75 -18.445312 7.59375 -18.75 C 7.445312 -19.0625 7.175781 -19.21875 6.78125 -19.21875 C 5.894531 -19.21875 5.453125 -18.640625 5.453125 -17.484375 L 5.453125 -6.203125 C 5.453125 -5.503906 5.539062 -4.972656 5.71875 -4.609375 C 5.894531 -4.242188 6.210938 -4.0625 6.671875 -4.0625 C 7.117188 -4.0625 7.429688 -4.242188 7.609375 -4.609375 C 7.796875 -4.972656 7.890625 -5.503906 7.890625 -6.203125 L 7.890625 -9.546875 L 6.640625 -9.546875 L 6.640625 -13.5625 L 12.328125 -13.5625 L 12.328125 0 L 10.46875 0 L 9.671875 -1.953125 C 8.847656 -0.503906 7.566406 0.21875 5.828125 0.21875 Z M 5.828125 0.21875 "/></g></g></g></svg>